<?xml version="1.0" encoding="UTF-8" ?>
<!DOCTYPE svg PUBLIC "-//W3C//DTD SVG 1.1//EN" "http://www.w3.org/Graphics/SVG/1.1/DTD/svg11.dtd">
<svg width="448pt" height="104pt" viewBox="0 0 448 104" version="1.1" xmlns="http://www.w3.org/2000/svg">
    <g id="#901c1cff">
        <path fill="#901c1c" opacity="1.00"
            d=" M 123.22 21.30 C 127.25 19.72 131.85 24.84 129.68 28.68 C 128.25 32.38 122.63 32.81 120.46 29.59 C 118.09 26.82 119.96 22.37 123.22 21.30 Z" />
        <path fill="#901c1c" opacity="1.00"
            d=" M 78.00 22.56 C 90.08 22.56 102.17 22.55 114.25 22.56 C 114.26 25.29 114.26 28.01 114.26 30.73 C 105.31 30.73 96.36 30.74 87.41 30.72 C 87.37 36.18 87.39 41.64 87.39 47.10 C 94.76 47.12 102.13 47.11 109.50 47.11 C 109.50 49.69 109.50 52.27 109.50 54.85 C 102.16 54.81 94.82 54.89 87.48 54.80 C 87.26 62.81 87.45 70.83 87.38 78.84 C 84.25 78.83 81.13 78.82 78.01 78.83 C 77.99 60.07 78.00 41.32 78.00 22.56 Z" />
        <path fill="#901c1c" opacity="1.00"
            d=" M 179.65 22.55 C 182.47 22.56 185.29 22.56 188.12 22.58 C 188.12 29.51 188.12 36.44 188.12 43.37 C 193.78 35.84 205.75 35.35 212.70 41.29 C 216.52 44.68 217.63 50.07 217.72 54.97 C 217.77 62.92 217.71 70.87 217.74 78.83 C 214.88 78.83 212.02 78.83 209.16 78.82 C 209.15 71.21 209.21 63.60 209.15 55.98 C 209.09 52.14 207.95 47.76 204.38 45.72 C 199.95 43.46 193.71 44.47 190.78 48.68 C 189.04 51.05 188.28 54.01 188.30 56.93 C 188.22 64.19 188.35 71.46 188.25 78.72 C 185.38 78.70 182.51 78.70 179.64 78.68 C 179.67 59.97 179.65 41.26 179.65 22.55 Z" />
        <path fill="#901c1c" opacity="1.00"
            d=" M 244.37 27.24 C 250.12 27.25 255.87 27.18 261.63 27.28 C 263.23 29.11 264.86 30.92 266.45 32.76 C 270.75 33.38 275.85 31.54 279.55 34.37 C 281.91 36.20 281.46 39.37 281.51 42.00 C 281.44 52.01 281.52 62.02 281.48 72.02 C 281.87 75.59 278.62 78.93 275.03 78.49 C 260.00 78.46 244.98 78.54 229.96 78.45 C 227.09 78.50 224.54 75.93 224.56 73.07 C 224.48 61.71 224.54 50.35 224.54 38.99 C 224.29 36.55 225.85 34.14 228.14 33.30 C 231.81 32.09 235.85 33.54 239.52 32.49 C 241.28 30.89 242.75 28.99 244.37 27.24 M 241.97 38.41 C 238.11 38.43 234.25 38.43 230.38 38.44 C 230.42 49.81 230.40 61.18 230.39 72.55 C 245.49 72.58 260.59 72.55 275.69 72.56 C 275.67 61.19 275.66 49.81 275.69 38.44 C 271.83 38.43 267.97 38.43 264.12 38.41 C 262.46 36.49 260.79 34.59 259.10 32.71 C 255.09 32.71 251.09 32.71 247.08 32.72 C 245.38 34.62 243.66 36.51 241.97 38.41 Z" />
        <path fill="#901c1c" opacity="1.00"
            d=" M 140.70 41.70 C 146.69 36.31 155.89 36.28 163.10 38.99 C 167.96 40.80 171.13 45.43 171.58 50.53 C 168.76 50.57 165.94 50.58 163.12 50.51 C 161.52 43.94 152.71 42.42 147.57 45.65 C 144.85 47.24 144.48 52.16 147.96 53.08 C 154.49 55.25 162.07 53.88 168.03 57.89 C 173.61 61.55 173.74 70.47 168.75 74.68 C 162.31 80.52 152.33 80.49 144.60 77.48 C 139.54 75.63 136.00 70.73 136.01 65.31 C 138.77 65.27 141.54 65.27 144.30 65.27 C 145.76 73.04 156.04 74.61 161.85 70.83 C 164.74 69.09 164.24 64.06 160.93 63.09 C 154.45 60.85 146.93 62.00 140.98 58.13 C 135.45 54.54 136.12 45.80 140.70 41.70 Z" />
        <path fill="#901c1c" opacity="1.00"
            d=" M 331.91 46.95 C 337.74 35.86 354.13 34.12 363.43 41.67 C 368.42 46.18 370.42 53.24 369.99 59.81 C 359.46 59.90 348.92 59.82 338.39 59.85 C 338.79 63.12 339.44 66.70 342.05 68.99 C 347.60 74.19 358.50 72.54 360.63 64.66 C 363.55 64.66 366.46 64.66 369.38 64.69 C 368.09 70.44 364.00 75.40 358.53 77.62 C 351.52 80.28 343.09 79.53 337.01 75.00 C 328.62 68.69 327.25 55.90 331.91 46.95 M 342.16 47.13 C 340.34 48.89 339.58 51.37 338.71 53.67 C 346.17 53.76 353.62 53.76 361.08 53.67 C 360.47 51.54 360.04 49.21 358.43 47.58 C 354.33 43.17 346.49 42.95 342.16 47.13 Z" />
        <path fill="#901c1c" opacity="1.00"
            d=" M 120.33 78.83 C 120.36 65.10 120.32 51.37 120.35 37.64 C 123.27 37.65 126.19 37.65 129.11 37.68 C 129.13 51.38 129.11 65.08 129.12 78.77 C 126.19 78.83 123.26 78.84 120.33 78.83 Z" />
        <path fill="#901c1c" opacity="1.00"
            d=" M 286.78 37.53 C 289.89 37.51 293.00 37.50 296.11 37.51 C 300.04 48.13 303.63 58.87 307.80 69.40 C 311.32 58.76 315.14 48.23 318.83 37.65 C 321.88 37.65 324.93 37.65 327.98 37.67 C 321.73 53.77 315.42 69.83 309.11 85.91 C 307.73 89.20 306.31 93.22 302.51 94.35 C 298.28 95.61 293.79 94.78 289.45 94.99 C 289.45 92.38 289.45 89.78 289.45 87.17 C 292.69 87.05 296.19 87.74 299.22 86.28 C 300.84 84.04 301.76 81.41 302.90 78.92 C 297.52 65.12 292.15 51.32 286.78 37.53 Z" />
        <path fill="#901c1c" opacity="1.00"
            d=" M 250.36 41.56 C 257.60 39.99 265.37 45.05 266.88 52.30 C 269.07 60.43 262.40 69.44 253.96 69.62 C 247.24 70.29 240.77 65.35 239.24 58.87 C 237.14 51.32 242.65 42.83 250.36 41.56 M 250.47 47.68 C 247.01 48.80 244.35 52.34 244.62 56.03 C 244.69 59.66 247.47 63.01 250.98 63.87 C 256.27 65.54 262.11 60.43 261.47 54.99 C 261.10 49.84 255.41 45.90 250.47 47.68 Z" />
    </g>
</svg>